<svg width="278" height="180" viewBox="0 0 278 180" fill="none" xmlns="http://www.w3.org/2000/svg">
<rect width="319.575" height="42" transform="matrix(0.866025 -0.5 -0.5 -0.866025 -22.0332 156.298)" fill="#F3794C"/>
<path d="M55.0283 92.2152L47.7104 96.4402L48.2643 100.624L44.5266 102.782L42.4518 82.964L46.0544 80.884L62.2021 92.5767L58.3743 94.7867L55.0283 92.2152ZM52.2809 90.1086L46.2976 85.5172L47.2822 92.9946L52.2809 90.1086ZM73.8798 85.8346L68.3051 83.1988L68.125 83.3028L64.9501 85.1358L67.4851 89.5266L63.8374 91.6326L54.7374 75.8709L61.56 71.9319C62.956 71.1259 64.2987 70.6609 65.5881 70.5369C66.8926 70.4043 68.0695 70.6054 69.1189 71.1404C70.1683 71.6753 71.031 72.5283 71.707 73.6991C72.383 74.87 72.6828 76.0479 72.6064 77.2329C72.5363 78.3942 72.1134 79.499 71.3376 80.5473L77.7977 83.5726L73.8798 85.8346ZM68.0143 75.8311C67.503 74.9455 66.8278 74.4346 65.9887 74.2986C65.1409 74.1476 64.1691 74.3884 63.0733 75.0211L60.1011 76.7371L63.2731 82.2312L66.2453 80.5152C67.3411 79.8825 68.0356 79.1613 68.3287 78.3516C68.6218 77.5419 68.517 76.7018 68.0143 75.8311ZM75.1591 74.7683L81.5313 71.0893L83.1563 73.9039L76.7841 77.5829L75.1591 74.7683ZM93.887 58.1315L100.881 70.2454L97.3684 72.2734L92.0384 63.0416L86.9947 65.9536L92.3247 75.1854L88.8346 77.2004L81.8406 65.0865L93.887 58.1315ZM110.027 65.2051C108.751 65.9418 107.451 66.3421 106.127 66.4061C104.809 66.4463 103.592 66.1583 102.476 65.5419C101.359 64.9255 100.454 64.0169 99.7611 62.816C99.0678 61.6151 98.7333 60.3772 98.7577 59.1021C98.7822 57.8271 99.1456 56.6366 99.848 55.5305C100.557 54.4008 101.549 53.4676 102.825 52.7309C104.101 51.9942 105.398 51.6058 106.716 51.5655C108.025 51.5102 109.237 51.7908 110.354 52.4071C111.47 53.0235 112.375 53.9321 113.068 55.133C113.762 56.3339 114.096 57.5719 114.072 58.8469C114.047 60.1219 113.688 61.32 112.995 62.4411C112.292 63.5471 111.303 64.4685 110.027 65.2051ZM108.363 62.323C109.264 61.803 109.826 61.0781 110.05 60.1483C110.28 59.1949 110.1 58.2078 109.511 57.187C108.921 56.1663 108.161 55.5247 107.229 55.2622C106.303 54.9761 105.39 55.093 104.489 55.613C103.588 56.133 103.023 56.8698 102.793 57.8232C102.554 58.7617 102.729 59.7413 103.319 60.762C103.908 61.7828 104.673 62.4319 105.614 62.7093C106.546 62.9718 107.462 62.843 108.363 62.323ZM121.666 52.1207L119.842 53.1737L122.494 57.7671L118.981 59.7951L111.987 47.6812L115.5 45.6532L118.217 50.3592L120.108 49.2672L120.679 42.6632L124.417 40.5052L123.537 48.7585L131.703 52.4501L127.56 54.8421L121.666 52.1207ZM130.816 36.5702C132.693 35.4868 134.394 35.1052 135.919 35.4252C137.437 35.7302 138.715 36.7833 139.755 38.5847L143.746 45.4973L140.459 47.3953L139.588 45.8867C139.577 47.3938 138.671 48.6674 136.87 49.7074C135.939 50.2447 135.038 50.5551 134.165 50.6386C133.308 50.7133 132.538 50.577 131.857 50.2296C131.177 49.8822 130.632 49.3557 130.225 48.6502C129.575 47.5244 129.484 46.396 129.952 45.2652C130.435 44.1258 131.562 43.0447 133.333 42.022L136.125 40.41C135.683 39.6444 135.113 39.1933 134.413 39.0567C133.705 38.9051 132.886 39.0979 131.955 39.6352C131.31 40.0079 130.733 40.4813 130.223 41.0555C129.721 41.606 129.351 42.1795 129.115 42.7761L126.437 41.0498C126.829 40.2031 127.409 39.3878 128.178 38.604C128.961 37.8114 129.841 37.1335 130.816 36.5702ZM136.383 46.8362C136.983 46.4895 137.438 46.0467 137.748 45.5079C138.048 44.954 138.14 44.3505 138.023 43.6974L137.308 42.459L134.899 43.85C133.458 44.682 133.011 45.5709 133.557 46.5166C133.817 46.9669 134.197 47.2275 134.698 47.2984C135.206 47.3456 135.768 47.1915 136.383 46.8362ZM150.906 32.9574C151.756 32.7666 152.511 32.7911 153.17 33.0312C153.844 33.2625 154.367 33.7009 154.74 34.3464C155.182 35.112 155.309 35.9391 155.122 36.8279C154.926 37.7016 154.461 38.5605 153.727 39.4044C152.994 40.2483 152.049 41.0039 150.893 41.6712C149.947 42.2172 148.96 42.657 147.932 42.9905C146.904 43.324 145.886 43.521 144.881 43.5814L144.409 40.581C146.041 40.4598 147.629 39.9529 149.175 39.0602C150.001 38.5836 150.577 38.0908 150.904 37.582C151.237 37.0494 151.273 36.558 151.013 36.1077C150.788 35.7174 150.454 35.52 150.011 35.5155C149.559 35.496 149.018 35.6683 148.388 36.0323L145.911 37.4623L144.65 35.2782L146.812 34.0302C147.427 33.6748 147.844 33.3043 148.061 32.9185C148.279 32.5326 148.279 32.1521 148.063 31.7768C147.837 31.3865 147.454 31.2076 146.912 31.2402C146.385 31.264 145.739 31.4969 144.974 31.9389C143.803 32.6149 142.687 33.6293 141.627 34.982L139.367 33.0442C140.624 31.338 142.048 30.0256 143.639 29.1069C144.735 28.4743 145.789 28.046 146.8 27.8222C147.827 27.5898 148.739 27.5932 149.538 27.8326C150.328 28.057 150.923 28.5144 151.321 29.2049C151.651 29.7754 151.777 30.3929 151.7 31.0576C151.615 31.7073 151.35 32.3405 150.906 32.9574Z" fill="white"/>
</svg>
